<mxfile host="app.diagrams.net" agent="Mozilla/5.0 (Macintosh; Intel Mac OS X 10_15_7) AppleWebKit/537.36 (KHTML, like Gecko) Chrome/131.0.0.0 Safari/537.36" version="26.1.0">
  <diagram name="Page-1" id="faqKHIJR9koXC1QMOJHa">
    <mxGraphModel dx="2818" dy="1332" grid="1" gridSize="10" guides="1" tooltips="1" connect="1" arrows="1" fold="1" page="1" pageScale="1" pageWidth="850" pageHeight="1400" math="0" shadow="0">
      <root>
        <mxCell id="0" />
        <mxCell id="1" parent="0" />
        <mxCell id="Byxm1S9SOx4EgnkQk-V_-1" value="Book Ticket" style="ellipse;whiteSpace=wrap;html=1;" vertex="1" parent="1">
          <mxGeometry x="130" y="260" width="140" height="70" as="geometry" />
        </mxCell>
        <mxCell id="Byxm1S9SOx4EgnkQk-V_-2" value="Login&lt;div&gt;&lt;br&gt;&lt;/div&gt;" style="ellipse;whiteSpace=wrap;html=1;" vertex="1" parent="1">
          <mxGeometry x="135" y="60" width="110" height="60" as="geometry" />
        </mxCell>
        <mxCell id="Byxm1S9SOx4EgnkQk-V_-3" value="Check for availabilty" style="ellipse;whiteSpace=wrap;html=1;" vertex="1" parent="1">
          <mxGeometry x="120" y="150" width="140" height="70" as="geometry" />
        </mxCell>
        <mxCell id="Byxm1S9SOx4EgnkQk-V_-4" value="Fill details" style="ellipse;whiteSpace=wrap;html=1;" vertex="1" parent="1">
          <mxGeometry x="130" y="360" width="140" height="70" as="geometry" />
        </mxCell>
        <mxCell id="Byxm1S9SOx4EgnkQk-V_-5" value="" style="edgeStyle=orthogonalEdgeStyle;rounded=0;orthogonalLoop=1;jettySize=auto;html=1;" edge="1" parent="1" source="Byxm1S9SOx4EgnkQk-V_-6" target="Byxm1S9SOx4EgnkQk-V_-7">
          <mxGeometry relative="1" as="geometry" />
        </mxCell>
        <mxCell id="Byxm1S9SOx4EgnkQk-V_-6" value="Make payment" style="ellipse;whiteSpace=wrap;html=1;" vertex="1" parent="1">
          <mxGeometry x="130" y="470" width="140" height="70" as="geometry" />
        </mxCell>
        <mxCell id="Byxm1S9SOx4EgnkQk-V_-7" value="generate ticket" style="ellipse;whiteSpace=wrap;html=1;" vertex="1" parent="1">
          <mxGeometry x="130" y="570" width="140" height="70" as="geometry" />
        </mxCell>
        <mxCell id="Byxm1S9SOx4EgnkQk-V_-8" value="Modify cancel ticket" style="ellipse;whiteSpace=wrap;html=1;" vertex="1" parent="1">
          <mxGeometry x="125" y="670" width="140" height="70" as="geometry" />
        </mxCell>
        <mxCell id="Byxm1S9SOx4EgnkQk-V_-9" value="passenger manifest" style="ellipse;whiteSpace=wrap;html=1;" vertex="1" parent="1">
          <mxGeometry x="130" y="750" width="140" height="70" as="geometry" />
        </mxCell>
        <mxCell id="Byxm1S9SOx4EgnkQk-V_-10" value="choose seat" style="ellipse;whiteSpace=wrap;html=1;" vertex="1" parent="1">
          <mxGeometry x="330" y="210" width="140" height="70" as="geometry" />
        </mxCell>
        <mxCell id="Byxm1S9SOx4EgnkQk-V_-11" value="validate card details" style="ellipse;whiteSpace=wrap;html=1;" vertex="1" parent="1">
          <mxGeometry x="300" y="320" width="120" height="70" as="geometry" />
        </mxCell>
        <mxCell id="Byxm1S9SOx4EgnkQk-V_-12" value="update database" style="ellipse;whiteSpace=wrap;html=1;" vertex="1" parent="1">
          <mxGeometry x="350" y="440" width="110" height="60" as="geometry" />
        </mxCell>
        <mxCell id="Byxm1S9SOx4EgnkQk-V_-13" value="Passenger" style="shape=umlActor;verticalLabelPosition=bottom;verticalAlign=top;html=1;" vertex="1" parent="1">
          <mxGeometry x="20" y="130" width="30" height="60" as="geometry" />
        </mxCell>
        <mxCell id="Byxm1S9SOx4EgnkQk-V_-14" value="Bank Payment Portal&lt;div&gt;&lt;br&gt;&lt;/div&gt;" style="shape=umlActor;verticalLabelPosition=bottom;verticalAlign=top;html=1;" vertex="1" parent="1">
          <mxGeometry x="630" y="360" width="30" height="60" as="geometry" />
        </mxCell>
        <mxCell id="Byxm1S9SOx4EgnkQk-V_-15" value="arline server" style="shape=umlActor;verticalLabelPosition=bottom;verticalAlign=top;html=1;" vertex="1" parent="1">
          <mxGeometry x="-90" y="530" width="30" height="60" as="geometry" />
        </mxCell>
        <mxCell id="Byxm1S9SOx4EgnkQk-V_-16" value="Arline reservation system" style="shape=umlFrame;whiteSpace=wrap;html=1;pointerEvents=0;recursiveResize=0;container=1;collapsible=0;width=410;height=40;" vertex="1" parent="1">
          <mxGeometry x="80" y="20" width="410" height="810" as="geometry" />
        </mxCell>
        <mxCell id="Byxm1S9SOx4EgnkQk-V_-17" value="&amp;lt;&amp;lt;include&amp;gt;&amp;gt;" style="html=1;verticalAlign=bottom;labelBackgroundColor=none;endArrow=open;endFill=0;dashed=1;rounded=0;exitX=0.5;exitY=1;exitDx=0;exitDy=0;entryX=0.5;entryY=0;entryDx=0;entryDy=0;" edge="1" parent="1" source="Byxm1S9SOx4EgnkQk-V_-1" target="Byxm1S9SOx4EgnkQk-V_-4">
          <mxGeometry width="160" relative="1" as="geometry">
            <mxPoint x="190" y="310" as="sourcePoint" />
            <mxPoint x="350" y="310" as="targetPoint" />
          </mxGeometry>
        </mxCell>
        <mxCell id="Byxm1S9SOx4EgnkQk-V_-18" value="&amp;lt;&amp;lt;extend&amp;gt;&amp;gt;" style="html=1;verticalAlign=bottom;labelBackgroundColor=none;endArrow=open;endFill=0;dashed=1;rounded=0;" edge="1" parent="1" source="Byxm1S9SOx4EgnkQk-V_-10" target="Byxm1S9SOx4EgnkQk-V_-1">
          <mxGeometry width="160" relative="1" as="geometry">
            <mxPoint x="300" y="290" as="sourcePoint" />
            <mxPoint x="460" y="290" as="targetPoint" />
          </mxGeometry>
        </mxCell>
        <mxCell id="Byxm1S9SOx4EgnkQk-V_-19" value="&amp;lt;&amp;lt;extend&amp;gt;&amp;gt;" style="html=1;verticalAlign=bottom;labelBackgroundColor=none;endArrow=open;endFill=0;dashed=1;rounded=0;exitX=0.5;exitY=1;exitDx=0;exitDy=0;" edge="1" parent="1" source="Byxm1S9SOx4EgnkQk-V_-4" target="Byxm1S9SOx4EgnkQk-V_-6">
          <mxGeometry width="160" relative="1" as="geometry">
            <mxPoint x="180" y="420" as="sourcePoint" />
            <mxPoint x="340" y="420" as="targetPoint" />
          </mxGeometry>
        </mxCell>
        <mxCell id="Byxm1S9SOx4EgnkQk-V_-20" value="Use" style="endArrow=open;endSize=12;dashed=1;html=1;rounded=0;" edge="1" parent="1" source="Byxm1S9SOx4EgnkQk-V_-6" target="Byxm1S9SOx4EgnkQk-V_-11">
          <mxGeometry x="-0.0059" width="160" relative="1" as="geometry">
            <mxPoint x="200" y="490" as="sourcePoint" />
            <mxPoint x="360" y="490" as="targetPoint" />
            <Array as="points">
              <mxPoint x="330" y="460" />
            </Array>
            <mxPoint as="offset" />
          </mxGeometry>
        </mxCell>
        <mxCell id="Byxm1S9SOx4EgnkQk-V_-21" value="&amp;lt;&amp;lt;include&amp;gt;&amp;gt;" style="html=1;verticalAlign=bottom;labelBackgroundColor=none;endArrow=open;endFill=0;dashed=1;rounded=0;exitX=1;exitY=0.5;exitDx=0;exitDy=0;" edge="1" parent="1" source="Byxm1S9SOx4EgnkQk-V_-6" target="Byxm1S9SOx4EgnkQk-V_-12">
          <mxGeometry width="160" relative="1" as="geometry">
            <mxPoint x="240" y="510" as="sourcePoint" />
            <mxPoint x="400" y="510" as="targetPoint" />
            <Array as="points">
              <mxPoint x="310" y="520" />
            </Array>
          </mxGeometry>
        </mxCell>
        <mxCell id="Byxm1S9SOx4EgnkQk-V_-22" value="&amp;lt;&amp;lt;extend&amp;gt;&amp;gt;" style="html=1;verticalAlign=bottom;labelBackgroundColor=none;endArrow=open;endFill=0;dashed=1;rounded=0;" edge="1" parent="1" source="Byxm1S9SOx4EgnkQk-V_-8" target="Byxm1S9SOx4EgnkQk-V_-12">
          <mxGeometry width="160" relative="1" as="geometry">
            <mxPoint x="230" y="690" as="sourcePoint" />
            <mxPoint x="390" y="690" as="targetPoint" />
            <Array as="points">
              <mxPoint x="410" y="705" />
            </Array>
          </mxGeometry>
        </mxCell>
        <mxCell id="Byxm1S9SOx4EgnkQk-V_-23" value="" style="endArrow=none;startArrow=none;endFill=0;startFill=0;endSize=8;html=1;verticalAlign=bottom;labelBackgroundColor=none;strokeWidth=3;rounded=0;exitX=0.5;exitY=0.5;exitDx=0;exitDy=0;exitPerimeter=0;" edge="1" parent="1" source="Byxm1S9SOx4EgnkQk-V_-13" target="Byxm1S9SOx4EgnkQk-V_-2">
          <mxGeometry width="160" relative="1" as="geometry">
            <mxPoint x="40" y="159.38" as="sourcePoint" />
            <mxPoint x="200" y="159.38" as="targetPoint" />
            <Array as="points">
              <mxPoint x="30" y="90" />
            </Array>
          </mxGeometry>
        </mxCell>
        <mxCell id="Byxm1S9SOx4EgnkQk-V_-24" value="" style="endArrow=none;startArrow=none;endFill=0;startFill=0;endSize=8;html=1;verticalAlign=bottom;labelBackgroundColor=none;strokeWidth=3;rounded=0;exitX=0.667;exitY=0.783;exitDx=0;exitDy=0;exitPerimeter=0;" edge="1" parent="1" source="Byxm1S9SOx4EgnkQk-V_-13" target="Byxm1S9SOx4EgnkQk-V_-3">
          <mxGeometry width="160" relative="1" as="geometry">
            <mxPoint x="-90" y="340" as="sourcePoint" />
            <mxPoint x="70" y="340" as="targetPoint" />
          </mxGeometry>
        </mxCell>
        <mxCell id="Byxm1S9SOx4EgnkQk-V_-25" value="" style="endArrow=none;startArrow=none;endFill=0;startFill=0;endSize=8;html=1;verticalAlign=bottom;labelBackgroundColor=none;strokeWidth=3;rounded=0;exitX=0.458;exitY=0.804;exitDx=0;exitDy=0;exitPerimeter=0;" edge="1" parent="1" source="Byxm1S9SOx4EgnkQk-V_-13" target="Byxm1S9SOx4EgnkQk-V_-1">
          <mxGeometry width="160" relative="1" as="geometry">
            <mxPoint x="-160" y="350" as="sourcePoint" />
            <mxPoint y="350" as="targetPoint" />
            <Array as="points">
              <mxPoint x="34" y="290" />
            </Array>
          </mxGeometry>
        </mxCell>
        <mxCell id="Byxm1S9SOx4EgnkQk-V_-26" value="" style="endArrow=none;startArrow=none;endFill=0;startFill=0;endSize=8;html=1;verticalAlign=bottom;labelBackgroundColor=none;strokeWidth=3;rounded=0;exitX=0.458;exitY=0.783;exitDx=0;exitDy=0;exitPerimeter=0;" edge="1" parent="1" source="Byxm1S9SOx4EgnkQk-V_-13" target="Byxm1S9SOx4EgnkQk-V_-8">
          <mxGeometry width="160" relative="1" as="geometry">
            <mxPoint x="-150" y="360" as="sourcePoint" />
            <mxPoint x="10" y="360" as="targetPoint" />
            <Array as="points">
              <mxPoint x="40" y="700" />
            </Array>
          </mxGeometry>
        </mxCell>
        <mxCell id="Byxm1S9SOx4EgnkQk-V_-27" value="" style="endArrow=none;startArrow=none;endFill=0;startFill=0;endSize=8;html=1;verticalAlign=bottom;labelBackgroundColor=none;strokeWidth=3;rounded=0;exitX=0.5;exitY=0.5;exitDx=0;exitDy=0;exitPerimeter=0;entryX=0;entryY=1;entryDx=0;entryDy=0;" edge="1" parent="1" source="Byxm1S9SOx4EgnkQk-V_-15" target="Byxm1S9SOx4EgnkQk-V_-2">
          <mxGeometry width="160" relative="1" as="geometry">
            <mxPoint x="-140" y="370" as="sourcePoint" />
            <mxPoint x="20" y="370" as="targetPoint" />
            <Array as="points">
              <mxPoint x="-80" y="111" />
            </Array>
          </mxGeometry>
        </mxCell>
        <mxCell id="Byxm1S9SOx4EgnkQk-V_-28" value="" style="endArrow=none;startArrow=none;endFill=0;startFill=0;endSize=8;html=1;verticalAlign=bottom;labelBackgroundColor=none;strokeWidth=3;rounded=0;exitX=0.5;exitY=0.5;exitDx=0;exitDy=0;exitPerimeter=0;entryX=0;entryY=0.636;entryDx=0;entryDy=0;entryPerimeter=0;" edge="1" parent="1" source="Byxm1S9SOx4EgnkQk-V_-15" target="Byxm1S9SOx4EgnkQk-V_-1">
          <mxGeometry width="160" relative="1" as="geometry">
            <mxPoint x="-130" y="380" as="sourcePoint" />
            <mxPoint x="30" y="380" as="targetPoint" />
            <Array as="points">
              <mxPoint x="-80" y="305" />
            </Array>
          </mxGeometry>
        </mxCell>
        <mxCell id="Byxm1S9SOx4EgnkQk-V_-29" value="" style="endArrow=none;startArrow=none;endFill=0;startFill=0;endSize=8;html=1;verticalAlign=bottom;labelBackgroundColor=none;strokeWidth=3;rounded=0;exitX=0.5;exitY=0.5;exitDx=0;exitDy=0;exitPerimeter=0;" edge="1" parent="1" source="Byxm1S9SOx4EgnkQk-V_-15" target="Byxm1S9SOx4EgnkQk-V_-7">
          <mxGeometry width="160" relative="1" as="geometry">
            <mxPoint x="-120" y="390" as="sourcePoint" />
            <mxPoint x="40" y="390" as="targetPoint" />
          </mxGeometry>
        </mxCell>
        <mxCell id="Byxm1S9SOx4EgnkQk-V_-30" value="" style="endArrow=none;startArrow=none;endFill=0;startFill=0;endSize=8;html=1;verticalAlign=bottom;labelBackgroundColor=none;strokeWidth=3;rounded=0;exitX=0.583;exitY=0.637;exitDx=0;exitDy=0;exitPerimeter=0;" edge="1" parent="1" source="Byxm1S9SOx4EgnkQk-V_-15" target="Byxm1S9SOx4EgnkQk-V_-9">
          <mxGeometry width="160" relative="1" as="geometry">
            <mxPoint x="-70" y="550" as="sourcePoint" />
            <mxPoint x="50" y="400" as="targetPoint" />
            <Array as="points">
              <mxPoint x="-73" y="785" />
            </Array>
          </mxGeometry>
        </mxCell>
        <mxCell id="Byxm1S9SOx4EgnkQk-V_-31" value="" style="endArrow=none;startArrow=none;endFill=0;startFill=0;endSize=8;html=1;verticalAlign=bottom;labelBackgroundColor=none;strokeWidth=3;rounded=0;exitX=0.667;exitY=0.762;exitDx=0;exitDy=0;exitPerimeter=0;" edge="1" parent="1" source="Byxm1S9SOx4EgnkQk-V_-14" target="Byxm1S9SOx4EgnkQk-V_-11">
          <mxGeometry width="160" relative="1" as="geometry">
            <mxPoint x="-100" y="410" as="sourcePoint" />
            <mxPoint x="60" y="410" as="targetPoint" />
          </mxGeometry>
        </mxCell>
      </root>
    </mxGraphModel>
  </diagram>
</mxfile>
